<svg width="38" height="38" viewBox="0 0 38 38" fill="none" xmlns="http://www.w3.org/2000/svg">
<g id="Group 12715">
<rect id="Rectangle 933" width="38" height="38" rx="12" fill="#EBEBEB"/>
<g id="Group 12714">
<circle id="Ellipse 5" cx="19" cy="19" r="15" fill="#42AFEC"/>
<path id="Intersect" fill-rule="evenodd" clip-rule="evenodd" d="M5.88384 26.2834C9.01993 23.5341 11 19.4983 11 15C11 12.3568 10.3163 9.87322 9.11616 7.71655C5.98007 10.4659 4 14.5017 4 19C4 21.6432 4.68368 24.1267 5.88384 26.2834Z" fill="#6DF2A2"/>
<circle id="Ellipse 7" cx="17" cy="23" r="4" fill="#6DF2A2"/>
<path id="Intersect_2" fill-rule="evenodd" clip-rule="evenodd" d="M33.5157 22.7952C26.4137 21.6115 21 15.4379 21 7.99994C21 6.68877 21.1682 5.41689 21.4843 4.20471C28.5863 5.38842 34 11.562 34 18.9999C34 20.3111 33.8318 21.583 33.5157 22.7952Z" fill="#6DF2A2"/>
</g>
</g>
</svg>
